<?xml version="1.0" encoding="iso-8859-1"?>
<!-- Generator: Adobe Illustrator 19.0.0, SVG Export Plug-In . SVG Version: 6.00 Build 0)  -->
<svg version="1.1" id="Layer_1" xmlns="http://www.w3.org/2000/svg" xmlns:xlink="http://www.w3.org/1999/xlink" x="0px" y="0px"
	 viewBox="0 0 512 512" style="enable-background:new 0 0 512 512;" xml:space="preserve">
<g>
	<g>
		<path d="M472.003,234.652V90.69h10.674V24.008c0-10.299-8.383-18.677-18.687-18.677h-32c-10.299,0-18.676,8.378-18.676,18.677
			v2.65h-85.305V0H183.992v26.658H98.687v-2.65c0-10.299-8.378-18.677-18.676-18.677h-32c-10.299,0-18.676,8.378-18.676,18.677
			V90.69h10.663v143.963H13.329v138.685h21.337V512h442.668V373.337h21.337V234.652H472.003z M482.644,250.679v21.305h-69.299
			v-21.305H482.644z M440.003,234.652V90.69h15.973v143.963H440.003z M431.989,21.358h32c1.467,0,2.66,1.188,2.66,2.65v50.655
			h-37.31V24.008h0C429.34,22.546,430.528,21.358,431.989,21.358z M328.008,42.684h85.305v15.973h-85.305V42.684z M264.019,16.027
			h47.963v26.636h-47.963V16.027z M200.019,16.027h47.973v26.636h-47.973V16.027z M200.019,58.69h111.963v26.636H200.019V58.69z
			 M200.019,101.353h111.963v26.636H200.019V101.353z M285.324,144.016v15.973h-58.636v-15.973H285.324z M98.687,42.684h85.305
			v15.973H98.687V42.684z M88.024,90.69h10.663V74.684h85.305v69.332h26.668v32h37.332v23.987h16.027v-23.987h37.332v-32h26.658
			V74.684h85.305V90.69h10.663v143.963h-26.658v37.332h-21.305v-32H135.997v32h-21.315v-37.332H88.024V90.69z M359.987,256.011
			v15.973H152.024v-15.973H359.987z M45.361,24.008c0-1.462,1.188-2.65,2.65-2.65h32c1.462,0,2.65,1.188,2.65,2.65v50.655h-37.3
			V24.008z M71.997,90.69v143.963H56.024V90.69H71.997z M29.356,250.679h69.299v21.305H29.356V250.679z M29.356,357.31v-26.636
			h69.299v26.636H29.356z M98.655,373.337v42.642H50.693v-42.642H98.655z M461.307,495.973H50.693v-63.968h47.963v18.655
			c0,11.172,5.367,18.676,13.356,18.676h74.663c7.982,0,13.345-7.505,13.345-18.676v-18.655h29.318v-16.027h-29.318v-42.642h111.963
			v42.642h-29.318v16.027h29.318v18.655c0,11.172,5.363,18.676,13.345,18.676H400c7.982,0,13.345-7.505,13.345-18.676v-18.655
			h47.963V495.973z M200.019,357.31v-26.636h111.963v26.636H200.019z M461.307,415.979h-47.963v-42.642h47.963V415.979z
			 M482.644,357.31h-69.299v-26.636h69.299V357.31z M482.645,314.647L482.645,314.647h-85.327c0,0-0.107,137.768-0.268,138.663
			h-68.772c-0.154-0.849-0.269-122.636-0.269-122.636h18.655v-16.027H165.338v16.027h18.655c0,0-0.107,121.741-0.268,122.636
			h-68.772c-0.155-0.849-0.27-138.663-0.27-138.663H29.357v-26.636h453.289V314.647z"/>
	</g>
</g>
<g>
	<g>
		<rect x="245.337" y="415.979" width="21.337" height="16.027"/>
	</g>
</g>
<g>
</g>
<g>
</g>
<g>
</g>
<g>
</g>
<g>
</g>
<g>
</g>
<g>
</g>
<g>
</g>
<g>
</g>
<g>
</g>
<g>
</g>
<g>
</g>
<g>
</g>
<g>
</g>
<g>
</g>
</svg>
